g all_mesh
v 0.03266407 -0.01913417 -0.03266407
v 0.03535533 0 -0.03535533
v 0 0 -0.04999999
v 0 -0.01913417 -0.04619397
v -0.03535533 0 -0.03535533
v 0.04619398 -0.01913417 0
v 0.05 0 0
v -0.03266407 -0.01913417 -0.03266407
v -0.04999999 0 0
v 0.03266407 -0.01913417 0.03266407
v 0.03535534 0 0.03535534
v -0.04619397 -0.01913417 0
v -0.03535533 0 0.03535533
v 0 -0.01913417 0.04619397
v 0 0 0.04999999
v -0.03266407 -0.01913417 0.03266407
v 0.025 -0.03535534 -0.025
v 0.03535534 -0.03535534 0
v 0 -0.03535534 -0.03535533
v 0.025 -0.03535534 0.025
v -0.025 -0.03535534 -0.025
v -0.03535533 -0.03535534 0
v -0.025 -0.03535534 0.025
v 0 -0.03535534 0.03535534
v 0.0135299 -0.04619398 -0.0135299
v 0.01913417 -0.04619398 0
v 0 -0.05 0
v 0 -0.04619398 -0.01913417
v 0.0135299 -0.04619398 0.0135299
v -0.0135299 -0.04619398 -0.0135299
v 0 -0.04619398 0.01913417
v -0.01913417 -0.04619398 0
v -0.0135299 -0.04619398 0.0135299
v 0.03535533 0 -0.03535533
v 0.03266407 0.01913417 -0.03266407
v 0 0.01913417 -0.04619397
v 0 0 -0.04999999
v 0.05 0 0
v -0.03266407 0.01913417 -0.03266407
v -0.03535533 0 -0.03535533
v 0.04619398 0.01913417 0
v 0.03535534 0 0.03535534
v -0.04619397 0.01913417 0
v -0.04999999 0 0
v 0.03266407 0.01913417 0.03266407
v 0 0 0.04999999
v -0.03266407 0.01913417 0.03266407
v -0.03535533 0 0.03535533
v 0 0.01913417 0.04619397
v 0 0.03535534 -0.03535533
v -0.025 0.03535534 -0.025
v 0.025 0.03535534 -0.025
v -0.03535533 0.03535534 0
v 0.03535534 0.03535534 0
v -0.025 0.03535534 0.025
v 0 0.03535534 0.03535534
v 0.025 0.03535534 0.025
v 0 0.04619398 -0.01913417
v -0.0135299 0.04619398 -0.0135299
v 0 0.05 0
v 0.0135299 0.04619398 -0.0135299
v -0.01913417 0.04619398 0
v 0.01913417 0.04619398 0
v -0.0135299 0.04619398 0.0135299
v 0.0135299 0.04619398 0.0135299
v 0 0.04619398 0.01913417
vt 0.1618659 0.1628788
vt 0.09909566 0.09811828
vt 0.01856813 0.292529
vt 0.1073259 0.293276
vt 0.09909508 0.4869401
vt 0.2935067 0.115291
vt 0.2935067 0.01759011
vt 0.161842 0.4246088
vt 0.2935067 0.5674689
vt 0.42517 0.1628655
vt 0.4879179 0.09811741
vt 0.2934895 0.4790513
vt 0.4879187 0.4869408
vt 0.4796944 0.2932633
vt 0.5684464 0.292529
vt 0.4251468 0.4245963
vt 0.2114419 0.2130317
vt 0.2935202 0.1817404
vt 0.1774441 0.2938911
vt 0.3755816 0.2130276
vt 0.2114251 0.3754569
vt 0.2934834 0.4093287
vt 0.3755651 0.3754531
vt 0.4095727 0.2938477
vt 0.2540483 0.2555237
vt 0.2935183 0.2398601
vt 0.2935098 0.2944625
vt 0.2376879 0.2942842
vt 0.3329956 0.2555
vt 0.2540163 0.3333599
vt 0.3493365 0.2942743
vt 0.2934977 0.3495808
vt 0.3329637 0.3333363
vt 0.8946874 0.513059
vt 0.8319091 0.5758374
vt 0.8864334 0.7074703
vt 0.9752153 0.7074703
vt 0.7002762 0.4325313
vt 0.8319093 0.8391035
vt 0.8946878 0.9018817
vt 0.7002761 0.5213132
vt 0.5058647 0.5130587
vt 0.7002761 0.8936278
vt 0.7002762 0.9824098
vt 0.568643 0.5758373
vt 0.4253367 0.7074703
vt 0.5686429 0.8391036
vt 0.5058644 0.9018819
vt 0.5141187 0.7074703
vt 0.8163002 0.7074703
vt 0.7823176 0.7895118
vt 0.7823176 0.6254289
vt 0.7002761 0.8234946
vt 0.7002761 0.5914463
vt 0.6182346 0.7895118
vt 0.5842521 0.7074703
vt 0.6182347 0.6254289
vt 0.7560683 0.7074703
vt 0.7397271 0.7469214
vt 0.7002761 0.7074703
vt 0.7397271 0.6680192
vt 0.7002761 0.7632625
vt 0.7002761 0.6516781
vt 0.6608251 0.7469214
vt 0.6608251 0.6680192
vt 0.6444839 0.7074703
vn 0.6624101 -0.3498939 -0.6624101
vn 0.7071068 0 -0.7071068
vn 0 0 -1
vn 0 -0.3498939 -0.9367894
vn -0.7071068 0 -0.7071068
vn 0.9367894 -0.3498939 0
vn 1 0 0
vn -0.6624101 -0.3498939 -0.6624101
vn -1 0 0
vn 0.6624101 -0.3498939 0.6624101
vn 0.7071068 0 0.7071068
vn -0.9367894 -0.3498938 0
vn -0.7071068 0 0.7071068
vn 0 -0.3498939 0.9367894
vn 0 0 1
vn -0.6624101 -0.3498939 0.6624101
vn 0.53476 -0.6542656 -0.53476
vn 0.7562648 -0.6542656 0
vn 0 -0.6542656 -0.7562648
vn 0.53476 -0.6542656 0.53476
vn -0.53476 -0.6542656 -0.5347601
vn -0.7562649 -0.6542656 0
vn -0.53476 -0.6542655 0.53476
vn 0 -0.6542655 0.7562649
vn 0.3508806 -0.8681967 -0.3508808
vn 0.4962202 -0.8681967 0
vn 0 -1 0
vn 0 -0.8681967 -0.4962204
vn 0.3508807 -0.8681967 0.3508807
vn -0.3508807 -0.8681967 -0.3508809
vn 0 -0.8681967 0.4962204
vn -0.4962204 -0.8681967 0
vn -0.3508807 -0.8681967 0.3508808
vn 0.7071068 0 -0.7071068
vn 0.6624101 0.3498939 -0.6624101
vn 0 0.3498939 -0.9367894
vn 0 0 -1
vn 1 0 0
vn -0.6624101 0.3498939 -0.6624101
vn -0.7071068 0 -0.7071068
vn 0.9367894 0.3498939 0
vn 0.7071068 0 0.7071068
vn -0.9367894 0.3498938 0
vn -1 0 0
vn 0.6624101 0.3498939 0.6624101
vn 0 0 1
vn -0.6624101 0.3498939 0.6624101
vn -0.7071068 0 0.7071068
vn 0 0.3498939 0.9367894
vn 0 0.6542656 -0.7562648
vn -0.5347599 0.6542657 -0.53476
vn 0.5347599 0.6542656 -0.53476
vn -0.7562649 0.6542656 0
vn 0.7562647 0.6542657 0
vn -0.53476 0.6542655 0.53476
vn 0 0.6542655 0.7562649
vn 0.53476 0.6542656 0.53476
vn 0 0.8681967 -0.4962204
vn -0.3508808 0.8681967 -0.3508809
vn 0 1 0
vn 0.3508806 0.8681967 -0.3508808
vn -0.4962204 0.8681967 0
vn 0.4962202 0.8681967 0
vn -0.3508807 0.8681967 0.3508808
vn 0.3508807 0.8681967 0.3508808
vn 0 0.8681967 0.4962204
g all_mesh_0
f 3/3/3 2/2/2 1/1/1
f 4/4/4 3/3/3 1/1/1
f 5/5/5 3/3/3 4/4/4
f 1/1/1 2/2/2 6/6/6
f 2/2/2 7/7/7 6/6/6
f 8/8/8 5/5/5 4/4/4
f 9/9/9 5/5/5 8/8/8
f 6/6/6 7/7/7 10/10/10
f 7/7/7 11/11/11 10/10/10
f 12/12/12 9/9/9 8/8/8
f 13/13/13 9/9/9 12/12/12
f 10/10/10 11/11/11 14/14/14
f 11/11/11 15/15/15 14/14/14
f 15/15/15 13/13/13 16/16/16
f 16/16/16 13/13/13 12/12/12
f 14/14/14 15/15/15 16/16/16
f 4/4/4 1/1/1 17/17/17
f 1/1/1 6/6/6 18/18/18
f 17/17/17 1/1/1 18/18/18
f 8/8/8 4/4/4 19/19/19
f 19/19/19 4/4/4 17/17/17
f 6/6/6 10/10/10 20/20/20
f 18/18/18 6/6/6 20/20/20
f 12/12/12 8/8/8 21/21/21
f 21/21/21 8/8/8 19/19/19
f 16/16/16 12/12/12 22/22/22
f 22/22/22 12/12/12 21/21/21
f 14/14/14 16/16/16 23/23/23
f 23/23/23 16/16/16 22/22/22
f 10/10/10 14/14/14 24/24/24
f 20/20/20 10/10/10 24/24/24
f 24/24/24 14/14/14 23/23/23
f 19/19/19 17/17/17 25/25/25
f 17/17/17 18/18/18 26/26/26
f 25/25/25 17/17/17 26/26/26
f 26/26/26 27/27/27 25/25/25
f 28/28/28 19/19/19 25/25/25
f 21/21/21 19/19/19 28/28/28
f 25/25/25 27/27/27 28/28/28
f 26/26/26 18/18/18 29/29/29
f 18/18/18 20/20/20 29/29/29
f 29/29/29 27/27/27 26/26/26
f 30/30/30 21/21/21 28/28/28
f 28/28/28 27/27/27 30/30/30
f 22/22/22 21/21/21 30/30/30
f 29/29/29 20/20/20 31/31/31
f 20/20/20 24/24/24 31/31/31
f 31/31/31 27/27/27 29/29/29
f 32/32/32 22/22/22 30/30/30
f 30/30/30 27/27/27 32/32/32
f 23/23/23 22/22/22 32/32/32
f 24/24/24 23/23/23 33/33/33
f 31/31/31 24/24/24 33/33/33
f 33/33/33 27/27/27 31/31/31
f 33/33/33 23/23/23 32/32/32
f 32/32/32 27/27/27 33/33/33
f 36/36/36 35/35/35 34/34/34
f 37/37/37 36/36/36 34/34/34
f 34/34/34 35/35/35 38/38/38
f 39/39/39 36/36/36 37/37/37
f 40/40/40 39/39/39 37/37/37
f 35/35/35 41/41/41 38/38/38
f 38/38/38 41/41/41 42/42/42
f 43/43/43 39/39/39 40/40/40
f 44/44/44 43/43/43 40/40/40
f 41/41/41 45/45/45 42/42/42
f 42/42/42 45/45/45 46/46/46
f 47/47/47 43/43/43 44/44/44
f 48/48/48 47/47/47 44/44/44
f 46/46/46 49/49/49 48/48/48
f 45/45/45 49/49/49 46/46/46
f 49/49/49 47/47/47 48/48/48
f 36/36/36 50/50/50 35/35/35
f 39/39/39 51/51/51 36/36/36
f 51/51/51 50/50/50 36/36/36
f 35/35/35 52/52/52 41/41/41
f 50/50/50 52/52/52 35/35/35
f 43/43/43 53/53/53 39/39/39
f 53/53/53 51/51/51 39/39/39
f 41/41/41 54/54/54 45/45/45
f 52/52/52 54/54/54 41/41/41
f 47/47/47 55/55/55 43/43/43
f 55/55/55 53/53/53 43/43/43
f 49/49/49 56/56/56 47/47/47
f 56/56/56 55/55/55 47/47/47
f 45/45/45 57/57/57 49/49/49
f 54/54/54 57/57/57 45/45/45
f 57/57/57 56/56/56 49/49/49
f 50/50/50 58/58/58 52/52/52
f 51/51/51 59/59/59 50/50/50
f 59/59/59 58/58/58 50/50/50
f 59/59/59 60/60/60 58/58/58
f 58/58/58 61/61/61 52/52/52
f 52/52/52 61/61/61 54/54/54
f 58/58/58 60/60/60 61/61/61
f 62/62/62 59/59/59 51/51/51
f 53/53/53 62/62/62 51/51/51
f 62/62/62 60/60/60 59/59/59
f 61/61/61 63/63/63 54/54/54
f 54/54/54 63/63/63 57/57/57
f 61/61/61 60/60/60 63/63/63
f 64/64/64 62/62/62 53/53/53
f 64/64/64 60/60/60 62/62/62
f 55/55/55 64/64/64 53/53/53
f 63/63/63 65/65/65 57/57/57
f 57/57/57 65/65/65 56/56/56
f 63/63/63 60/60/60 65/65/65
f 66/66/66 64/64/64 55/55/55
f 56/56/56 66/66/66 55/55/55
f 65/65/65 66/66/66 56/56/56
f 66/66/66 60/60/60 64/64/64
f 65/65/65 60/60/60 66/66/66
